<mxfile host="app.diagrams.net" agent="Mozilla/5.0 (Windows NT 10.0; Win64; x64) AppleWebKit/537.36 (KHTML, like Gecko) Chrome/138.0.0.0 Safari/537.36" version="28.0.7">
  <diagram name="Pagina-1" id="vFKMTgr4LC9YjDw4aFVX">
    <mxGraphModel dx="1188" dy="626" grid="1" gridSize="10" guides="1" tooltips="1" connect="1" arrows="1" fold="1" page="1" pageScale="1" pageWidth="1169" pageHeight="827" math="0" shadow="0">
      <root>
        <mxCell id="0" />
        <mxCell id="1" parent="0" />
        <mxCell id="pJpxXucEA3aLXGGTcVPw-1" value="" style="image;sketch=0;aspect=fixed;html=1;points=[];align=center;fontSize=12;image=img/lib/mscae/Person.svg;" vertex="1" parent="1">
          <mxGeometry x="70" y="213" width="37" height="50" as="geometry" />
        </mxCell>
        <mxCell id="pJpxXucEA3aLXGGTcVPw-2" value="" style="sketch=0;outlineConnect=0;fontColor=#232F3E;gradientColor=none;fillColor=#232F3D;strokeColor=none;dashed=0;verticalLabelPosition=bottom;verticalAlign=top;align=center;html=1;fontSize=12;fontStyle=0;aspect=fixed;pointerEvents=1;shape=mxgraph.aws4.git_repository;" vertex="1" parent="1">
          <mxGeometry x="220" y="213" width="40" height="52" as="geometry" />
        </mxCell>
        <mxCell id="pJpxXucEA3aLXGGTcVPw-3" value="" style="image;sketch=0;aspect=fixed;html=1;points=[];align=center;fontSize=12;image=img/lib/mscae/Azure_Pipelines.svg;" vertex="1" parent="1">
          <mxGeometry x="360" y="209" width="50" height="50" as="geometry" />
        </mxCell>
        <mxCell id="pJpxXucEA3aLXGGTcVPw-4" value="" style="image;sketch=0;aspect=fixed;html=1;points=[];align=center;fontSize=12;image=img/lib/mscae/Azure_Pipelines.svg;" vertex="1" parent="1">
          <mxGeometry x="520" y="209" width="50" height="50" as="geometry" />
        </mxCell>
        <mxCell id="pJpxXucEA3aLXGGTcVPw-5" value="" style="image;sketch=0;aspect=fixed;html=1;points=[];align=center;fontSize=12;image=img/lib/mscae/Azure_Pipelines.svg;" vertex="1" parent="1">
          <mxGeometry x="680" y="210" width="50" height="50" as="geometry" />
        </mxCell>
        <mxCell id="pJpxXucEA3aLXGGTcVPw-6" value="" style="image;aspect=fixed;html=1;points=[];align=center;fontSize=12;image=img/lib/azure2/security/Key_Vaults.svg;" vertex="1" parent="1">
          <mxGeometry x="650" y="32" width="58" height="58" as="geometry" />
        </mxCell>
        <mxCell id="pJpxXucEA3aLXGGTcVPw-7" value="" style="image;sketch=0;aspect=fixed;html=1;points=[];align=center;fontSize=12;image=img/lib/mscae/Azure_Artifacts.svg;" vertex="1" parent="1">
          <mxGeometry x="570" y="36" width="50" height="50" as="geometry" />
        </mxCell>
        <mxCell id="pJpxXucEA3aLXGGTcVPw-8" value="Developer" style="text;html=1;align=center;verticalAlign=middle;whiteSpace=wrap;rounded=0;" vertex="1" parent="1">
          <mxGeometry x="58.5" y="262" width="60" height="30" as="geometry" />
        </mxCell>
        <mxCell id="pJpxXucEA3aLXGGTcVPw-9" value="Repository" style="text;html=1;align=center;verticalAlign=middle;whiteSpace=wrap;rounded=0;" vertex="1" parent="1">
          <mxGeometry x="210" y="263" width="60" height="30" as="geometry" />
        </mxCell>
        <mxCell id="pJpxXucEA3aLXGGTcVPw-10" value="Azure Pipelines (PR)" style="text;html=1;align=center;verticalAlign=middle;whiteSpace=wrap;rounded=0;" vertex="1" parent="1">
          <mxGeometry x="340" y="260" width="80" height="30" as="geometry" />
        </mxCell>
        <mxCell id="pJpxXucEA3aLXGGTcVPw-11" value="Azure Pipelines (CI)" style="text;html=1;align=center;verticalAlign=middle;whiteSpace=wrap;rounded=0;" vertex="1" parent="1">
          <mxGeometry x="505" y="260" width="80" height="30" as="geometry" />
        </mxCell>
        <mxCell id="pJpxXucEA3aLXGGTcVPw-12" value="Azure Pipelines (CD)" style="text;html=1;align=center;verticalAlign=middle;whiteSpace=wrap;rounded=0;" vertex="1" parent="1">
          <mxGeometry x="660" y="260" width="80" height="30" as="geometry" />
        </mxCell>
        <mxCell id="pJpxXucEA3aLXGGTcVPw-13" value="" style="endArrow=classic;html=1;rounded=0;" edge="1" parent="1">
          <mxGeometry width="50" height="50" relative="1" as="geometry">
            <mxPoint x="140" y="250" as="sourcePoint" />
            <mxPoint x="210" y="250" as="targetPoint" />
          </mxGeometry>
        </mxCell>
        <mxCell id="pJpxXucEA3aLXGGTcVPw-14" value="" style="endArrow=classic;html=1;rounded=0;" edge="1" parent="1">
          <mxGeometry width="50" height="50" relative="1" as="geometry">
            <mxPoint x="280" y="250" as="sourcePoint" />
            <mxPoint x="350" y="250" as="targetPoint" />
          </mxGeometry>
        </mxCell>
        <mxCell id="pJpxXucEA3aLXGGTcVPw-15" value="" style="endArrow=classic;html=1;rounded=0;" edge="1" parent="1">
          <mxGeometry width="50" height="50" relative="1" as="geometry">
            <mxPoint x="430" y="250" as="sourcePoint" />
            <mxPoint x="500" y="250" as="targetPoint" />
          </mxGeometry>
        </mxCell>
        <mxCell id="pJpxXucEA3aLXGGTcVPw-16" value="" style="endArrow=classic;html=1;rounded=0;" edge="1" parent="1">
          <mxGeometry width="50" height="50" relative="1" as="geometry">
            <mxPoint x="590" y="250" as="sourcePoint" />
            <mxPoint x="660" y="250" as="targetPoint" />
          </mxGeometry>
        </mxCell>
        <mxCell id="pJpxXucEA3aLXGGTcVPw-17" value="&lt;b&gt;1&lt;/b&gt;" style="text;html=1;align=center;verticalAlign=middle;whiteSpace=wrap;rounded=0;" vertex="1" parent="1">
          <mxGeometry x="280" y="213" width="60" height="30" as="geometry" />
        </mxCell>
        <mxCell id="pJpxXucEA3aLXGGTcVPw-18" value="&lt;b&gt;2&lt;/b&gt;&lt;span style=&quot;color: rgba(0, 0, 0, 0); font-family: monospace; font-size: 0px; text-align: start; text-wrap-mode: nowrap;&quot;&gt;%3CmxGraphModel%3E%3Croot%3E%3CmxCell%20id%3D%220%22%2F%3E%3CmxCell%20id%3D%221%22%20parent%3D%220%22%2F%3E%3CmxCell%20id%3D%222%22%20value%3D%22%26lt%3Bb%26gt%3B1%26lt%3B%2Fb%26gt%3B%22%20style%3D%22text%3Bhtml%3D1%3Balign%3Dcenter%3BverticalAlign%3Dmiddle%3BwhiteSpace%3Dwrap%3Brounded%3D0%3B%22%20vertex%3D%221%22%20parent%3D%221%22%3E%3CmxGeometry%20x%3D%22280%22%20y%3D%22213%22%20width%3D%2260%22%20height%3D%2230%22%20as%3D%22geometry%22%2F%3E%3C%2FmxCell%3E%3C%2Froot%3E%3C%2FmxGraphModel%3E&lt;/span&gt;" style="text;html=1;align=center;verticalAlign=middle;whiteSpace=wrap;rounded=0;" vertex="1" parent="1">
          <mxGeometry x="434" y="213" width="60" height="30" as="geometry" />
        </mxCell>
        <mxCell id="pJpxXucEA3aLXGGTcVPw-19" value="&lt;b&gt;3&lt;/b&gt;" style="text;html=1;align=center;verticalAlign=middle;whiteSpace=wrap;rounded=0;" vertex="1" parent="1">
          <mxGeometry x="597" y="214" width="60" height="30" as="geometry" />
        </mxCell>
        <mxCell id="pJpxXucEA3aLXGGTcVPw-21" value="&lt;font style=&quot;font-size: 9px;&quot;&gt;- Code analysis&lt;/font&gt;&lt;div&gt;&lt;font style=&quot;font-size: 9px;&quot;&gt;- Linting&lt;/font&gt;&lt;/div&gt;&lt;div&gt;&lt;font style=&quot;font-size: 9px;&quot;&gt;- Unit tests&lt;/font&gt;&lt;/div&gt;&lt;div&gt;&lt;font style=&quot;font-size: 9px;&quot;&gt;- PR review&lt;/font&gt;&lt;/div&gt;" style="text;html=1;align=left;verticalAlign=middle;whiteSpace=wrap;rounded=0;" vertex="1" parent="1">
          <mxGeometry x="359" y="310" width="60" height="30" as="geometry" />
        </mxCell>
        <mxCell id="pJpxXucEA3aLXGGTcVPw-22" value="&lt;font style=&quot;font-size: 9px;&quot;&gt;- Same as PR&lt;/font&gt;&lt;div&gt;&lt;font style=&quot;font-size: 9px;&quot;&gt;- Add integration tests&lt;/font&gt;&lt;/div&gt;&lt;div&gt;&lt;br&gt;&lt;/div&gt;" style="text;html=1;align=left;verticalAlign=middle;whiteSpace=wrap;rounded=0;" vertex="1" parent="1">
          <mxGeometry x="515" y="320" width="60" height="30" as="geometry" />
        </mxCell>
        <mxCell id="pJpxXucEA3aLXGGTcVPw-23" value="&lt;font style=&quot;font-size: 9px;&quot;&gt;- Acceptance tests&lt;/font&gt;" style="text;html=1;align=left;verticalAlign=middle;whiteSpace=wrap;rounded=0;" vertex="1" parent="1">
          <mxGeometry x="670" y="300" width="60" height="30" as="geometry" />
        </mxCell>
        <mxCell id="pJpxXucEA3aLXGGTcVPw-24" value="" style="rounded=0;whiteSpace=wrap;html=1;fillColor=light-dark(#E6E6E6,#E6E6E6);strokeColor=none;" vertex="1" parent="1">
          <mxGeometry x="790" y="153" width="120" height="60" as="geometry" />
        </mxCell>
        <mxCell id="pJpxXucEA3aLXGGTcVPw-25" value="" style="rounded=0;whiteSpace=wrap;html=1;fillColor=light-dark(#E6E6E6,#E6E6E6);strokeColor=none;" vertex="1" parent="1">
          <mxGeometry x="790" y="292" width="120" height="60" as="geometry" />
        </mxCell>
        <mxCell id="pJpxXucEA3aLXGGTcVPw-26" value="" style="endArrow=classic;html=1;rounded=0;" edge="1" parent="1">
          <mxGeometry width="50" height="50" relative="1" as="geometry">
            <mxPoint x="740" y="240" as="sourcePoint" />
            <mxPoint x="790" y="190" as="targetPoint" />
          </mxGeometry>
        </mxCell>
        <mxCell id="pJpxXucEA3aLXGGTcVPw-28" value="" style="endArrow=classic;html=1;rounded=0;" edge="1" parent="1">
          <mxGeometry width="50" height="50" relative="1" as="geometry">
            <mxPoint x="740" y="270" as="sourcePoint" />
            <mxPoint x="790" y="320" as="targetPoint" />
          </mxGeometry>
        </mxCell>
        <mxCell id="pJpxXucEA3aLXGGTcVPw-29" value="&lt;b&gt;Staging&lt;/b&gt;" style="text;html=1;align=center;verticalAlign=middle;whiteSpace=wrap;rounded=0;" vertex="1" parent="1">
          <mxGeometry x="787" y="153" width="60" height="30" as="geometry" />
        </mxCell>
        <mxCell id="pJpxXucEA3aLXGGTcVPw-30" value="&lt;b&gt;Production&lt;/b&gt;" style="text;html=1;align=center;verticalAlign=middle;whiteSpace=wrap;rounded=0;" vertex="1" parent="1">
          <mxGeometry x="795" y="289" width="60" height="30" as="geometry" />
        </mxCell>
        <mxCell id="pJpxXucEA3aLXGGTcVPw-31" value="&lt;b&gt;4&lt;/b&gt;" style="text;html=1;align=center;verticalAlign=middle;whiteSpace=wrap;rounded=0;" vertex="1" parent="1">
          <mxGeometry x="727" y="190" width="60" height="30" as="geometry" />
        </mxCell>
        <mxCell id="pJpxXucEA3aLXGGTcVPw-33" value="&lt;b&gt;5&lt;/b&gt;" style="text;html=1;align=center;verticalAlign=middle;whiteSpace=wrap;rounded=0;" vertex="1" parent="1">
          <mxGeometry x="727" y="289" width="60" height="30" as="geometry" />
        </mxCell>
        <mxCell id="pJpxXucEA3aLXGGTcVPw-34" value="" style="endArrow=classic;html=1;rounded=0;" edge="1" parent="1">
          <mxGeometry width="50" height="50" relative="1" as="geometry">
            <mxPoint x="630" y="122" as="sourcePoint" />
            <mxPoint x="570" y="198" as="targetPoint" />
          </mxGeometry>
        </mxCell>
        <mxCell id="pJpxXucEA3aLXGGTcVPw-35" value="" style="endArrow=classic;html=1;rounded=0;" edge="1" parent="1">
          <mxGeometry width="50" height="50" relative="1" as="geometry">
            <mxPoint x="630" y="120" as="sourcePoint" />
            <mxPoint x="680" y="198" as="targetPoint" />
          </mxGeometry>
        </mxCell>
        <mxCell id="pJpxXucEA3aLXGGTcVPw-36" value="&lt;font style=&quot;font-size: 9px;&quot;&gt;Secrets (Databricks tokens, API keys, etc.)&lt;/font&gt;" style="text;html=1;align=center;verticalAlign=middle;whiteSpace=wrap;rounded=0;" vertex="1" parent="1">
          <mxGeometry x="650" y="100" width="60" height="30" as="geometry" />
        </mxCell>
        <mxCell id="pJpxXucEA3aLXGGTcVPw-39" value="&lt;font style=&quot;font-size: 9px;&quot;&gt;Build artifacts&lt;/font&gt;" style="text;html=1;align=center;verticalAlign=middle;whiteSpace=wrap;rounded=0;" vertex="1" parent="1">
          <mxGeometry x="565" y="86" width="60" height="30" as="geometry" />
        </mxCell>
        <mxCell id="pJpxXucEA3aLXGGTcVPw-40" value="Azure artifacts" style="text;html=1;align=center;verticalAlign=middle;whiteSpace=wrap;rounded=0;" vertex="1" parent="1">
          <mxGeometry x="565" y="2" width="60" height="30" as="geometry" />
        </mxCell>
        <mxCell id="pJpxXucEA3aLXGGTcVPw-41" value="Azure Key Vault" style="text;html=1;align=center;verticalAlign=middle;whiteSpace=wrap;rounded=0;" vertex="1" parent="1">
          <mxGeometry x="650" y="2" width="60" height="30" as="geometry" />
        </mxCell>
        <mxCell id="pJpxXucEA3aLXGGTcVPw-42" value="1) PR triggers a PR pipeline. If all checks and PR review pass, PR wil merge&lt;div&gt;2) A Merge triggers a CI pipeline, which runs integrations test. Result of successful run is creation of build artifacts.&amp;nbsp;&lt;/div&gt;&lt;div&gt;3) Publishing of articats triggers CD pipeline&lt;/div&gt;&lt;div&gt;4) CD pipeline downloads build artifacts and deploys to staging environment, then runs acceptance tests. If successful then manual validation task.&lt;/div&gt;&lt;div&gt;5) Pipeline runs smoke tests in production to ensure release is working as expected&amp;nbsp;&lt;/div&gt;" style="text;html=1;align=left;verticalAlign=middle;whiteSpace=wrap;rounded=0;" vertex="1" parent="1">
          <mxGeometry x="840" y="450" width="300" height="170" as="geometry" />
        </mxCell>
        <mxCell id="pJpxXucEA3aLXGGTcVPw-43" value="" style="endArrow=classic;html=1;rounded=0;edgeStyle=orthogonalEdgeStyle;dashed=1;" edge="1" parent="1">
          <mxGeometry width="50" height="50" relative="1" as="geometry">
            <mxPoint x="467.97" y="300" as="sourcePoint" />
            <mxPoint x="97" y="300" as="targetPoint" />
            <Array as="points">
              <mxPoint x="468" y="410" />
              <mxPoint x="97" y="410" />
              <mxPoint x="97" y="300" />
            </Array>
          </mxGeometry>
        </mxCell>
        <mxCell id="pJpxXucEA3aLXGGTcVPw-44" value="" style="endArrow=classic;html=1;rounded=0;edgeStyle=orthogonalEdgeStyle;dashed=1;" edge="1" parent="1">
          <mxGeometry width="50" height="50" relative="1" as="geometry">
            <mxPoint x="627" y="300" as="sourcePoint" />
            <mxPoint x="87" y="300" as="targetPoint" />
            <Array as="points">
              <mxPoint x="627" y="310" />
              <mxPoint x="627" y="420" />
              <mxPoint x="87" y="420" />
            </Array>
          </mxGeometry>
        </mxCell>
        <mxCell id="pJpxXucEA3aLXGGTcVPw-45" value="" style="endArrow=classic;html=1;rounded=0;edgeStyle=orthogonalEdgeStyle;dashed=1;" edge="1" parent="1">
          <mxGeometry width="50" height="50" relative="1" as="geometry">
            <mxPoint x="910" y="319" as="sourcePoint" />
            <mxPoint x="74" y="300" as="targetPoint" />
            <Array as="points">
              <mxPoint x="960" y="319" />
              <mxPoint x="960" y="430" />
              <mxPoint x="74" y="430" />
            </Array>
          </mxGeometry>
        </mxCell>
        <mxCell id="pJpxXucEA3aLXGGTcVPw-46" value="" style="endArrow=none;dashed=1;html=1;strokeWidth=1;rounded=0;" edge="1" parent="1">
          <mxGeometry width="50" height="50" relative="1" as="geometry">
            <mxPoint x="960" y="330" as="sourcePoint" />
            <mxPoint x="960" y="180" as="targetPoint" />
          </mxGeometry>
        </mxCell>
        <mxCell id="pJpxXucEA3aLXGGTcVPw-47" value="" style="endArrow=none;dashed=1;html=1;strokeWidth=1;rounded=0;exitX=1.017;exitY=0.614;exitDx=0;exitDy=0;exitPerimeter=0;" edge="1" parent="1">
          <mxGeometry width="50" height="50" relative="1" as="geometry">
            <mxPoint x="912.04" y="183.83999999999992" as="sourcePoint" />
            <mxPoint x="960" y="184" as="targetPoint" />
          </mxGeometry>
        </mxCell>
      </root>
    </mxGraphModel>
  </diagram>
</mxfile>
